# xmcd
#
# Track frame offsets: 
#        150
#        19501
#        32889
#        49673
#        74429
#        92884
#        112302
#        138284
#        158687
#        178975
#
# Disc length: 2708 seconds
#
# Revision: 0
# Processed by: cddbd v1.5.2PL0 Copyright (c) Steve Scherf et al.
# Submitted via: ExactAudioCopy v1.0b3
#
DISCID=8a0a920a
DTITLE=Mong Thi - Canh Cong Rau Dang
DYEAR=2000
DGENRE=
TTITLE0=Khong co anh
TTITLE1=Hinh anh nguoi em khong doi
TTITLE2=Canh cong rau dang
TTITLE3=Con me tinh ai
TTITLE4=Dung nhac nua
TTITLE5=Tinh trong giac mo
TTITLE6=Hoa no mot lan
TTITLE7=Cay khe sau nha
TTITLE8=Pho cu ve dem
TTITLE9=Nho anh ly bong mai
EXTD=
EXTT0=
EXTT1=
EXTT2=
EXTT3=
EXTT4=
EXTT5=
EXTT6=
EXTT7=
EXTT8=
EXTT9=
PLAYORDER=
